# xmcd
#
# Track frame offsets:
#	150
#	17652
#	21596
#	42668
#	61911
#	79340
#	98458
#	118835
#	139366
#	158709
#	178842
#	200196
#
# Disc length: 2963 seconds
#
# Revision: 0
# Processed by: cddbd v1.4PL0 Copyright (c) Steve Scherf et al.
# Submitted via: EasyCDDAExtractor 4.6.0.1
#
DISCID=ad0b910c
DTITLE=이정봉 - 6집
DYEAR=2002
DGENRE=Ballad
TTITLE0=기억
TTITLE1=Hug(intro)
TTITLE2=Hug
TTITLE3=Masterpiece of God
TTITLE4=한 사람을 위한 마음
TTITLE5=같은 모습
TTITLE6=그녀를 위해
TTITLE7=그대 떠난 후
TTITLE8=Blue tears
TTITLE9=기억(Remix)
TTITLE10=어떤가요
TTITLE11=바램
EXTD=
EXTT0=
EXTT1=
EXTT2=
EXTT3=
EXTT4=
EXTT5=
EXTT6=
EXTT7=
EXTT8=
EXTT9=
EXTT10=
EXTT11=
PLAYORDER=
